 
http://img6.imageshack.us/img6/9624/03bppnmv.png

 
http://img251.imageshack.us/my.php?image=planethulk2010720p1mkvs.png 
http://img256.imageshack.us/my.php?image=planethulk2010720p1mkvs.png 
http://img193.imageshack.us/my.php?image=planethulk2010720p1mkvs.png 
http://img6.imageshack.us/my.php?image=planethulk2010720p1mkvs.png


Planet Hulk is a 2010 direct-to-video animated film created by Marvel Animation and released by Lionsgate Home Entertainment. It is based on the "Planet Hulk" storyline by Greg Pak  and Carlo Pagulayan.





The Hulk awakes on board a shuttle which crashes on the planet Sakaar. Imperial guards appear and attach an obedience disk to the Hulk, which instead of being controled, the Gray Hulk/Joe Fixit's mind surfaced into the Green Hulk's. From here the Hulk later wakes up on an imperial transport enroute to a colosseum, weakened after coming through the portal and imprisoned with Hiroim, Korg, Miek, Elloe Kaifi, Lavin Skee, an Android and a few hived natives.

The slaves are forced to fight for their freedom in a succession of 3 fights. Lavin Skee takes charge, making battle plans for when they reach the colloseum for which Hulk shows no interest. Their first opponents are Korg's brothers. Despite Korg's refusal to fight, the Kronans attack his team. The fight leaves Lavin Skee impaled and the natives dead before Korg decides to destroy them, and sees Hulk trying to escape. But, when he realises the leader is the Red King he tries to attack him after killing the Great Devil Corker, and ends up fighting the Emperor's lieutenant, Caiera. Red King shoots the Hulk, but doesn't kill him due to the displeasure of the crowd. The Red King secretly plans Hulk's death.

The other gladiators hold a service for Lavin Skee and form Warbound, revealing their pasts to each other. Elloe also tells Hiroim that some civilians believe the Hulk is the true "Sakaarson," a title the Red King claims. The next day a crowd outside of the arena chants the name "Sakaarson" for the Hulk, who doesn't accept the title. The other gladiators ask him to fight with them until they can win their freedom, and Hulk his own. They fight the Wildebots, and succeed.

Later, Caiera tells the Hulk her story: as a child, creatures known as "Spikes" attacked her home-town and the Red Prince (now the Red King) emerges, killing off the Spikes with his Death’s Head guards, after which Caiera pledges allegiance to the prince. She worries Hulk's popularity will turn the people away from the Red King. She encourages him to escape that night but Hulk refuses. That night the resistance comes to rescue the gladiators but the Hulk refuses to go, warning there's a trap. Elloe leaves, and the rest of Warbound are forced to listen to the resistance fighters being attacked.





Directed by 	Sam Liu
Produced by 	

    * Joshua Fine
    * Craig Kyle
    * Frank Paur

Screenplay by 	Greg Johnson
Story by 	Greg Pak (comic book)
Starring 	

    * Rick D. Wasserman
    * Lisa Ann Beley
    * Mark Hildreth
    * Liam O'Brien
    * Kevin Michael Richardson
    * Samuel Vincent
    * Advah Soudack
    * Michael Kopsa
    * Marc Worden

Music by 	Guy Michelmore
Editing by 	George P. Rizkallah Studio 	Marvel Animation
Distributed by 	Lionsgate Home Entertainment
Release date 	February 2, 2010
Running time 	81 minutes





General
Complete name                    : Planet Hulk 2010.720p.mkv
Format                           : Matroska
File size                        : 2.86 GiB
Duration                         : 1h 21mn
Overall bit rate                 : 5 054 Kbps
Encoded date                     : UTC 2010-12-09 14:29:42
Writing application              : mkvmerge v4.3.0 ('Escape from the Island') built on Sep  5 2010 10:30:51
Writing library                  : libebml v1.0.0 + libmatroska v1.0.0

Video
ID                               : 1
Format                           : AVC
Format/Info                      : Advanced Video Codec
Format profile                   : High@L4.1
Format settings, CABAC           : Yes
Format settings, ReFrames        : 5 frames
Muxing mode                      : Header stripping
Codec ID                         : V_MPEG4/ISO/AVC
Duration                         : 1h 21mn
Bit rate                         : 3 162 Kbps
Width                            : 1 280 pixels
Height                           : 720 pixels
Display aspect ratio             : 16:9
Frame rate                       : 23.976 fps
Color space                      : YUV
Chroma subsampling               : 4:2:0
Bit depth                        : 8 bits
Scan type                        : Progressive
Bits/(Pixel*Frame)               : 0.143
Stream size                      : 1.73 GiB (61%)
Writing library                  : x264 core 84 r1400kGIT 20fa784
Audio #1
ID                               : 2
Format                           : AC-3
Format/Info                      : Audio Coding 3
Mode extension                   : CM (complete main)
Muxing mode                      : Header stripping
Codec ID                         : A_AC3
Duration                         : 1h 21mn
Bit rate mode                    : Constant
Bit rate                         : 384 Kbps
Channel(s)                       : 6 channels
Channel positions                : Front: L C R, Side: L R, LFE
Sampling rate                    : 48.0 KHz
Bit depth                        : 16 bits
Video delay                      : 1s 500ms
Stream size                      : 223 MiB (8%)
Language                         : Italian

Audio #2
ID                               : 3
Format                           : DTS
Format/Info                      : Digital Theater Systems
Muxing mode                      : Header stripping
Codec ID                         : A_DTS
Duration                         : 1h 21mn
Bit rate mode                    : Constant
Bit rate                         : 1 510 Kbps
Channel(s)                       : 6 channels
Channel positions                : Front: L C R, Side: L R, LFE
Sampling rate                    : 48.0 KHz
Bit depth                        : 24 bits
Stream size                      : 876 MiB (30%)



